<?xml version="1.0" encoding="UTF-8" standalone="no"?>
<!-- Created with Inkscape (http://www.inkscape.org/) -->

<svg
   xmlns:svg="http://www.w3.org/2000/svg"
   xmlns="http://www.w3.org/2000/svg"
   version="1.1"
   width="318.18777"
   height="245.45799"
   id="svg1901">
  <defs
     id="defs1903">
    <marker
       refX="0"
       refY="0"
       orient="auto"
       id="Arrow1Mend"
       style="overflow:visible">
      <path
         d="M 0,0 5,-5 -12.5,0 5,5 0,0 z"
         transform="matrix(-0.4,0,0,-0.4,-4,0)"
         id="path8951"
         style="fill-rule:evenodd;stroke:#000000;stroke-width:1pt;marker-start:none" />
    </marker>
  </defs>
  <g
     transform="translate(-193.44928,-575.07013)"
     id="layer1" />
  <g
     transform="matrix(0.36512106,0,0,0.36512106,50.29419,-198.26333)"
     id="g8925">
    <g
       transform="matrix(0.17751748,0.089414,-0.27930418,0.03412423,260.58584,759.8866)"
       id="g1317">
      <path
         d="m 328.13982,741.35361 c -0.65645,-11.89474 -25.2155,-16.69898 -34.62196,-39.77633 -9.24442,-22.67981 -45.84123,-42.94426 -87.80105,-37.32635 -15.45707,-26.90821 -24.87118,-35.35957 -50.19297,-36.62756 -8.4564,-18.13338 -21.86557,-18.9561 -32.42121,-25.97902 8.71908,-9.43226 66.31941,-26.61224 112.63481,-21.36132 22.22198,12.47894 43.27723,20.10576 55.63601,22.05276 17.17746,-16.12306 19.28417,-19.50774 20.40923,-26.8372 0.94406,-6.15029 -3.63311,-1.51523 -7.28401,-25.6195 12.20938,-0.53838 26.03095,17.79484 56.35272,-1.82238 -2.03321,21.96881 -7.66701,21.41031 -7.63925,28.17919 0.0273,6.65587 1.34381,7.96104 18.73721,27.53147 11.17992,-4.9744 28.03591,-14.26261 50.6521,-25.74765 43.09487,0.59156 76.98606,-3.29725 126.9316,21.35911 -14.49736,12.10104 -31.40079,2.79587 -43.71642,29.02344 -25.73088,3.77088 -42.85008,9.80738 -59.72878,36.71237 -39.76744,-6.82579 -63.04116,8.64263 -77.28625,36.13719 -14.50147,27.98939 -33.03663,29.4655 -34.04779,40.18679 -0.99425,10.54198 -5.95724,11.81522 -6.61399,-0.085 z"
         id="path1319"
         style="fill:#000000" />
    </g>
    <g
       transform="translate(-137.90069,-68.546795)"
       id="g7543">
      <path
         d="m 356.58384,653.96931 54.54824,28.67705 72.85884,-21.90553 -60.44813,-21.18582 z"
         id="path7531"
         style="fill:#888a85;fill-opacity:1;fill-rule:evenodd;stroke:none" />
      <path
         d="m 411.13208,682.64636 0,86.51534 72.85884,-35.22145 0,-73.19942 z"
         id="path7533"
         style="fill:#2e3436;fill-opacity:1;fill-rule:evenodd;stroke:none" />
      <path
         d="m 356.58384,653.96931 54.54824,28.67705 0,86.51534 -54.54824,-46.10924 z"
         id="path7535"
         style="fill:#555753;fill-opacity:1;fill-rule:evenodd;stroke:none" />
    </g>
    <path
       d="m 588.02026,699.87597 c 130.00596,45.5644 41.10483,148.1331 -261.07565,237.90633 0,0 -4.06514,-2.13712 -4.06514,-2.13712 C 620.5962,847.50586 709.10796,746.52168 581.33311,701.5016 467.22232,661.29589 193.15704,670.90865 -75.45583,726.23275 c 0,0 -2.533426,-1.33187 -2.533426,-1.33187 272.282946,-55.94119 550.083266,-65.65467 666.009526,-25.02492 0,0 -10e-6,1e-5 -10e-6,1e-5 m -34.37064,8.35541 c 118.40069,42.64373 31.36194,137.31729 -247.39685,218.67282 0,0 -3.67361,-1.93128 -3.67361,-1.93128 274.61509,-79.89277 361.17644,-173.0953 244.80372,-215.21811 -104.76287,-37.92045 -360.57334,-28.80466 -610.018367,23.21784 0,0 -2.361294,-1.24138 -2.361294,-1.24138 252.890341,-52.62001 512.210821,-61.83422 618.646421,-23.49989 0,0 -2e-5,0 -2e-5,0 m -35.17544,8.55107 c 106.92756,39.60697 22.64386,126.3181 -232.46268,199.48054 0,0 -3.26498,-1.71647 -3.26498,-1.71647 251.29388,-71.86538 335.00381,-157.2358 229.90277,-196.34806 -95.39294,-35.49949 -332.36959,-26.91838 -562.23998,21.63209 0,0 -2.182667,-1.14747 -2.182667,-1.14747 C 181.30698,689.5585 421.55349,680.8821 518.4742,716.78244 c 0,0 -2e-5,1e-5 -2e-5,1e-5 m -36.00886,8.75366 c 95.60012,36.44887 14.97788,115.12842 -216.25906,180.31488 0,0 -2.87287,-1.51032 -2.87287,-1.51032 C 491.09721,840.29376 571.01663,762.83869 477.0446,726.85388 391.03612,693.91855 173.58382,701.9215 -36.293056,746.82136 c 0,0 -2.019714,-1.0618 -2.019714,-1.0618 212.83875,-45.4451 433.38764,-53.54226 520.77809,-20.22345 0,0 0,0 0,0 m -36.87225,8.96355 c 84.43323,33.16401 8.39186,103.74107 -198.76997,161.16124 0,0 -2.52801,-1.32902 -2.52801,-1.32902 204.03469,-56.42843 279.36576,-125.90054 196.36421,-158.63283 -76.62102,-30.21608 -273.99409,-22.83186 -463.440195,18.22591 0,0 -1.827687,-0.96085 -1.827687,-0.96085 192.149892,-41.57097 392.347232,-49.04441 470.201672,-18.46445 0,0 -2e-5,0 -2e-5,0 m -37.76706,9.18109 c 73.44232,29.74652 2.91575,92.14813 -179.97734,142.00493 0,0 -2.16602,-1.13871 -2.16602,-1.13871 180.12079,-49.00762 249.86141,-110.42412 177.65845,-139.77596 -67.23922,-27.33399 -243.77754,-20.6184 -412.3435592,16.39754 0,0 -1.6516618,-0.86831 -1.6516618,-0.86831 170.998041,-37.49102 350.156361,-44.29285 418.480151,-16.6195 0,0 -2e-5,10e-6 -2e-5,10e-6 m -38.69486,9.40662 c 62.64429,26.19042 -1.41878,80.3415 -159.86097,122.83125 0,0 -1.84871,-0.9719 -1.84871,-0.9719 156.03026,-41.77459 219.35588,-95.06457 157.76195,-120.89967 -57.87666,-24.27591 -212.96285,-18.2763 -360.1807795,14.48424 0,0 -1.4451076,-0.75972 -1.4451076,-0.75972 C 152.9242,734.57831 310.32064,728.49977 369.13117,753.08736 c 0,0 -2e-5,10e-6 -2e-5,10e-6 m -39.65727,9.64058 c 52.05694,22.4892 -4.57903,68.31278 -138.39851,103.62531 0,0 -1.51417,-0.79603 -1.51417,-0.79603 131.77534,-34.72635 187.65393,-79.81267 136.46377,-101.99086 -48.54487,-21.0321 -181.34965,-15.80608 -306.736692,12.47516 0,0 -1.254722,-0.65964 -1.254722,-0.65964 127.237704,-28.66477 262.111904,-33.9644 311.440344,-12.65394 0,0 -2e-5,0 -2e-5,0 m -40.72396,9.8999 c 41.69872,18.63686 -6.46229,56.0365 -115.49746,84.35557 0,0 -1.22176,-0.64231 -1.22176,-0.64231 107.36368,-27.85451 154.94289,-64.66298 113.93146,-83.03556 -39.26013,-17.58803 -149.09488,-13.19065 -252.148369,10.37231 0,0 -1.007791,-0.52981 -1.007791,-0.52981 104.5934,-23.89251 216.0518,-28.34964 255.94394,-10.52021 0,0 -2e-5,10e-6 -2e-5,10e-6 m -41.69474,10.13589 c 31.59145,14.6245 -7.1657,43.5358 -91.26503,65.03941 0,0 -0.91229,-0.47961 -0.91229,-0.47961 82.80616,-21.1556 121.02202,-49.60429 89.94605,-64.01739 -30.03743,-13.93143 -115.98849,-10.42943 -196.188595,8.16367 0,0 -0.801472,-0.42135 -0.801472,-0.42135 81.412667,-18.86013 168.701287,-22.41327 199.221357,-8.28474 0,0 -2e-5,10e-6 -2e-5,10e-6"
       id="use8388"
       style="font-size:medium;font-style:normal;font-variant:normal;font-weight:normal;font-stretch:normal;text-indent:0;text-align:start;text-decoration:none;line-height:normal;letter-spacing:normal;word-spacing:normal;text-transform:none;direction:ltr;block-progression:tb;writing-mode:lr-tb;text-anchor:start;color:#000000;fill:#f57900;fill-opacity:1;stroke:none;stroke-width:3.70000005;marker:none;visibility:visible;display:inline;overflow:visible;enable-background:accumulate;font-family:Bitstream Vera Sans;-inkscape-font-specification:Bitstream Vera Sans" />
    <path
       d="m 511.55492,825.91019 c -239.09631,16.48376 -533.911554,-60.93485 -631.66685,-154.3272 0,0 5.98608,-0.33874 5.98608,-0.33874 96.652537,91.72586 386.05817,167.45538 620.7163,151.33353 227.71711,-15.64498 252.67703,-108.30788 92.1282,-191.67578 0,0 5.50744,-0.31168 5.50744,-0.31168 163.79914,84.74527 139.22069,179.3327 -92.67117,195.31987 0,0 0,0 0,0 M 486.5946,809.15548 C 270.32419,823.80648 2.3557633,754.61417 -89.417556,669.8459 c 0,0 5.50858,-0.31172 5.50858,-0.31172 90.6924493,83.27307 353.776706,151.00226 566.097546,136.66371 206.63104,-13.95443 233.13306,-97.42947 88.88735,-173.73146 0,0 5.06292,-0.28657 5.06292,-0.28657 147.12028,77.55748 120.82437,162.72448 -89.54426,176.97562 0,0 2e-5,0 2e-5,0 M 462.41039,792.9217 C 268.26184,805.84931 26.561576,744.46552 -58.840566,668.11546 c 0,0 4.984196,-0.28209 4.984196,-0.28209 84.353585,75.01922 321.72804,135.14408 512.38706,122.48408 186.06561,-12.35492 213.35139,-86.98713 84.8023,-156.28099 0,0 4.61528,-0.26122 4.61528,-0.26122 131.06911,70.42948 103.84803,146.53589 -85.53788,159.14646 0,0 0,0 0,0 M 438.96631,777.18478 C 266.26855,788.49098 50.276015,734.52287 -28.380261,666.39162 c 0,0 4.463834,-0.25262 4.463834,-0.25262 77.65428,66.95753 289.823277,119.8279 459.462067,108.74964 165.99779,-10.84049 193.3448,-76.93107 79.89715,-139.27381 0,0 4.21103,-0.23832 4.21103,-0.23832 115.6368,63.36 88.23768,130.74912 -80.68751,141.80827 0,0 0,0 0,0 M 416.22925,761.9224 C 264.34037,771.70194 73.513756,724.77995 1.9640093,664.67435 c 0,0 3.997108,-0.22626 3.997108,-0.22626 70.6113867,59.08192 258.0777427,105.0819 407.3176827,95.49381 146.41864,-9.40683 173.15895,-67.29893 74.21934,-122.74555 0,0 3.7569,-0.2126 3.7569,-0.2126 100.81495,56.34783 73.94117,115.34725 -75.02579,124.93865 0,0 0,0 0,0 m -22.0619,-14.80912 C 262.47468,755.45474 96.289342,715.23083 32.192789,662.96355 c 0,0 3.484452,-0.19716 3.484452,-0.19716 63.230709,51.38736 226.519889,90.823 355.948259,82.64063 127.30397,-8.04807 152.79086,-58.01546 67.77902,-106.62076 0,0 3.34656,-0.18939 3.34656,-0.18939 86.59549,49.39191 60.91028,100.31436 -68.58357,108.51648 0,0 -1.6e-4,-7e-5 -1.6e-4,-7e-5 M 372.75132,732.73765 C 260.66798,739.72346 118.6164,705.86986 62.30698,661.2593 c 0,0 3.025104,-0.17117 3.025104,-0.17117 55.530646,43.86792 195.113316,77.08219 305.298116,70.22573 108.64361,-6.76048 132.28721,-49.11751 60.62544,-90.9346 0,0 2.88585,-0.16329 2.88585,-0.16329 72.97074,42.49128 49.09842,85.63527 -61.39018,92.52169 0,0 1e-5,-10e-6 1e-5,-10e-6 M 351.95303,718.77669 C 258.91801,724.484 140.508,696.69148 92.307113,659.5615 c 0,0 2.519638,-0.14261 2.519638,-0.14261 47.518049,36.51895 163.888779,63.78292 255.369419,58.17853 90.41701,-5.53923 111.6378,-40.53526 52.76056,-75.61659 0,0 2.46896,-0.13975 2.46896,-0.13975 59.93255,35.64465 38.46239,71.29578 -53.47266,76.93561 0,0 0,0 0,0 m -20.23981,-13.58606 c -74.5229,4.50065 -169.73662,-17.5003 -209.51937,-47.32051 0,0 2.06715,-0.11699 2.06715,-0.11699 39.20842,29.33495 132.80835,50.9558 206.10584,46.53374 72.61394,-4.38081 90.88988,-32.30462 44.23467,-60.70135 0,0 1.95391,-0.11055 1.95391,-0.11055 47.47193,28.85116 28.9739,57.25764 -44.8422,61.71566 0,0 0,0 0,0 m -19.63958,-13.18314 c -56.52748,3.36182 -129.03909,-13.14602 -160.10584,-35.82236 0,0 1.569,-0.0888 1.569,-0.0888 30.6092,22.31145 101.90464,38.52993 157.51509,35.22535 55.21636,-3.28121 70.02794,-24.36024 35.04264,-46.12282 0,0 1.5307,-0.0866 1.5307,-0.0866 35.58494,22.1095 20.5691,43.55772 -35.55161,46.89528 0,0 2e-5,0 2e-5,0"
       id="use8388-9"
       style="font-size:medium;font-style:normal;font-variant:normal;font-weight:normal;font-stretch:normal;text-indent:0;text-align:start;text-decoration:none;line-height:normal;letter-spacing:normal;word-spacing:normal;text-transform:none;direction:ltr;block-progression:tb;writing-mode:lr-tb;text-anchor:start;color:#000000;fill:#4e9a06;fill-opacity:1;stroke:none;stroke-width:3.70000005;marker:none;visibility:visible;display:inline;overflow:visible;enable-background:accumulate;font-family:Bitstream Vera Sans;-inkscape-font-specification:Bitstream Vera Sans" />
    <path
       d="m 93.186573,97.154972 c 3.58997,-0.935061 6.797876,-1.115919 9.722717,-1.136422"
       transform="matrix(2.7388176,0,0,2.7388176,-137.74661,543.00711)"
       id="path10014"
       style="fill:none;stroke:#ffffff;stroke-width:0.40000001;stroke-linecap:butt;stroke-linejoin:miter;stroke-miterlimit:4;stroke-opacity:1;stroke-dasharray:none" />
  </g>
  <path
     d="m 36.55072,195.57959 c 0.59829,-5.43686 1.19658,-11.28058 1.79487,-16.03078 0.59829,-4.75018 1.19658,-8.31523 1.79487,-9.10816 0.59829,-0.79292 1.19658,1.32603 1.79487,6.38558 0.59829,5.05953 1.19658,13.0971 1.79487,21.29478 0.59829,8.19769 1.19658,16.31636 1.79487,20.22528 0.59829,3.90894 1.19658,3.21671 1.79487,-2.60715 0.59829,-5.82386 1.1966,-16.74498 1.79489,-26.73275 0.59829,-9.98778 1.19658,-18.25789 1.79487,-18.71435 0.59829,-0.45647 1.19658,7.41264 1.79487,18.755 0.59829,11.34234 1.19658,25.02351 1.79487,29.85907 0.59829,4.83557 1.19658,-0.44222 1.79487,-12.2578 0.59829,-11.81558 1.19658,-28.43346 1.79487,-34.1377 0.59829,-5.70423 1.19658,1.46121 1.79487,15.30028 0.59829,13.83907 1.19658,31.10931 1.79487,32.90396 0.59829,1.79464 1.19658,-13.44653 1.79487,-29.18951 0.59831,-15.74299 1.1966,-26.16991 1.79489,-17.88481 0.59829,8.28509 1.19658,32.87982 1.79487,42.75836 0.59829,9.87854 1.19658,-0.8634 1.79487,-18.85609 0.59829,-17.9927 1.19658,-33.26853 1.79487,-23.76682 0.59829,9.50171 1.19658,39.02232 1.79487,45.62099 0.59829,6.59869 1.19658,-16.08342 1.79487,-34.39849 0.59829,-18.31504 1.19658,-16.44676 1.79487,3.58493 0.59829,20.03166 1.19658,40.18537 1.79487,26.9532 0.59829,-13.23215 1.19658,-47.66184 1.79488,-45.09237 0.59829,2.56947 1.19658,41.15435 1.79487,48.95086 0.59829,7.79649 1.19658,-27.06921 1.79487,-42.76912 0.59829,-15.6999 1.19658,11.41003 1.79487,32.18797 0.59829,20.77793 1.19658,2.04918 1.79487,-21.60758 0.59829,-23.65674 1.19658,-11.63407 1.79487,13.57934 0.59829,25.2134 1.19658,16.88067 1.79487,-9.24389 0.59829,-26.12456 1.19658,-17.66968 1.79487,8.97467 0.59829,26.64432 1.19658,13.70803 1.79487,-12.78955 0.59829,-26.49755 1.1966,-4.46302 1.79489,20.37741 0.59829,24.84044 1.19658,-10.37297 1.79487,-30.73231 0.59829,-20.35935 1.19658,29.8212 1.79487,41.52326 0.59829,11.70206 1.19658,-50.125 1.79487,-48.59013 0.59829,1.53485 1.19658,63.66008 1.79487,46.35564 0.59829,-17.30443 1.19658,-60.06705 1.79487,-30.16109 0.59829,29.90596 1.19658,41.76976 1.79487,10.79233"
     id="path9910"
     style="fill:none;stroke:#f57900;stroke-width:1;stroke-linecap:square;stroke-miterlimit:4;stroke-opacity:1;stroke-dasharray:none" />
  <path
     d="m 36.55072,197.29205 0,-49.99999"
     id="path8937"
     style="fill:none;stroke:#000000;stroke-width:1px;stroke-linecap:butt;stroke-linejoin:miter;stroke-opacity:1;marker-end:url(#Arrow1Mend)" />
  <path
     d="m 185.98927,222.98615 -6.06091,0 0,-12.50064"
     id="path9989"
     style="fill:none;stroke:#000000;stroke-width:1px;stroke-linecap:butt;stroke-linejoin:miter;stroke-opacity:1" />
  <path
     d="m 176.26655,232.9614 -2.27284,0 0,-19.29886"
     id="path9987"
     style="fill:none;stroke:#000000;stroke-width:1px;stroke-linecap:butt;stroke-linejoin:miter;stroke-opacity:1" />
  <path
     d="m 166.52153,196.62833 c 0.51332,-4.44513 1.02663,-10.27409 1.53995,-14.15781 0.51332,-3.88371 1.02664,-6.79846 1.53996,-7.44676 0.51332,-0.64828 1.02664,1.08415 1.53996,5.2208 0.51332,4.13663 1.02664,10.70807 1.53996,17.41042 0.51331,6.70236 1.02663,13.34012 1.53995,16.53602 0.51332,3.19591 1.02664,2.62995 1.53996,-2.13159 0.51332,-4.76153 1.02666,-13.69055 1.53998,-21.85646 0.51332,-8.16592 1.02663,-14.92749 1.53995,-15.30069 0.51332,-0.3732 1.02664,6.06051 1.53996,15.33393 0.51332,9.27339 1.02664,20.459 1.53996,24.41251 0.51332,3.95352 1.02664,-0.36156 1.53995,-10.02187 0.51332,-9.66032 1.02664,-23.24695 1.53996,-27.91069 0.51332,-4.66372 1.02664,1.19468 1.53996,12.50938 0.51332,11.3147 1.02664,25.4347 1.53996,26.90199 0.51332,1.46728 1.02663,-10.99377 1.53995,-23.86509 0.51333,-12.87133 1.02665,-21.39629 1.53997,-14.62246 0.51332,6.77381 1.02664,26.88225 1.53996,34.95886 0.51332,8.07661 1.02664,-0.70591 1.53995,-15.41658 0.51332,-14.71067 1.02664,-27.20005 1.53996,-19.43154 0.51332,7.76852 1.02664,31.90431 1.53996,37.29932 0.51332,5.39503 1.02664,-13.14966 1.53996,-28.1239 0.51331,-14.97422 1.02663,-13.44673 1.53995,2.93101 0.51332,16.3777 1.02664,32.8552 1.53996,22.0367 0.51332,-10.81849 1.02664,-38.96791 1.53997,-36.86713 0.51332,2.10077 1.02663,33.64743 1.53995,40.02179 0.51332,6.37434 1.02664,-22.13155 1.53996,-34.96765 0.51332,-12.83611 1.02664,9.32874 1.53996,26.3166 0.51332,16.98785 1.02664,1.67539 1.53996,-17.66617 0.51331,-19.34154 1.02663,-9.51191 1.53995,11.10235 0.51332,20.61425 1.02664,13.80149 1.53996,-7.55772 0.51332,-21.35922 1.02664,-14.44658 1.53996,7.33761 0.51332,21.78416 1.02663,11.20756 1.53995,-10.45663 0.51332,-21.66416 1.02666,-3.64892 1.53998,16.66039 0.51332,20.30933 1.02664,-8.48084 1.53996,-25.12646 0.51332,-16.64563 1.02664,24.38155 1.53995,33.94905 0.51332,9.5675 1.02664,-40.98176 1.53996,-39.72686 0.51332,1.25488 1.02664,52.04792 1.53996,37.89996 0.51332,-14.14795 1.02664,-49.11029 1.53996,-24.65944 0.51332,24.45085 1.02663,34.15059 1.53995,8.82371"
     id="path9910-5"
     style="fill:none;stroke:#4e9a06;stroke-width:1;stroke-linecap:square;stroke-miterlimit:4;stroke-opacity:1;stroke-dasharray:none" />
  <path
     d="m 172.49676,197.94108 c 0.51375,-3.68276 1.02749,-8.51201 1.54123,-11.72964 0.51374,-3.21762 1.02748,-5.63247 1.54123,-6.16958 0.51374,-0.53709 1.02748,0.89821 1.54122,4.32539 0.51375,3.42717 1.02749,8.87156 1.54123,14.4244 0.51374,5.55286 1.02749,11.05218 1.54123,13.69996 0.51374,2.64779 1.02748,2.1789 1.54123,-1.766 0.51374,-3.94489 1.0275,-11.34251 1.54124,-18.10791 0.51374,-6.7654 1.02749,-12.36731 1.54123,-12.6765 0.51374,-0.3092 1.02748,5.02109 1.54123,12.70404 0.51374,7.68294 1.02748,16.95012 1.54122,20.22558 0.51375,3.27546 1.02749,-0.29955 1.54123,-8.30305 0.51374,-8.00349 1.02748,-19.25991 1.54123,-23.12378 0.51374,-3.86386 1.02748,0.98978 1.54122,10.36392 0.51375,9.37414 1.02749,21.07245 1.54123,22.28809 0.51374,1.21563 1.02749,-9.10825 1.54123,-19.77204 0.51375,-10.6638 1.02749,-17.72666 1.54124,-12.1146 0.51374,5.61206 1.02748,22.27174 1.54122,28.96315 0.51374,6.6914 1.02749,-0.58484 1.54123,-12.77252 0.51374,-12.18768 1.02748,-22.53503 1.54123,-16.09888 0.51374,6.43615 1.02748,26.43247 1.54122,30.9022 0.51375,4.46974 1.02749,-10.8944 1.54123,-23.30044 0.51374,-12.40602 1.02749,-11.14051 1.54123,2.42832 0.51374,13.56881 1.02748,27.22028 1.54122,18.25723 0.51375,-8.96303 1.02749,-32.2846 1.54124,-30.54412 0.51374,1.74047 1.02749,27.87664 1.54123,33.15774 0.51374,5.2811 1.02748,-18.33581 1.54123,-28.97043 0.51374,-10.63461 1.02748,7.72879 1.54122,21.8031 0.51375,14.07431 1.02749,1.38805 1.54123,-14.63628 0.51374,-16.02432 1.02748,-7.88055 1.54123,9.19821 0.51374,17.07875 1.02748,11.43442 1.54122,-6.26152 0.51375,-17.69594 1.02749,-11.96887 1.54123,6.07916 0.51374,18.04801 1.02749,9.28538 1.54123,-8.66324 0.51374,-17.94859 1.0275,-3.0231 1.54124,13.80301 0.51375,16.82612 1.02749,-7.02632 1.54123,-20.81708 0.51374,-13.79078 1.02749,20.19992 1.54123,28.12652 0.51374,7.92661 1.02748,-33.95307 1.54123,-32.9134 0.51374,1.03966 1.02748,43.12131 1.54122,31.39983 0.51375,-11.72147 1.02749,-40.6875 1.54123,-20.43016 0.51374,20.25735 1.02748,28.2935 1.54123,7.31038"
     id="path9957"
     style="fill:none;stroke:#8ae234;stroke-width:1;stroke-linecap:square;stroke-miterlimit:4;stroke-opacity:1;stroke-dasharray:none" />
  <path
     d="m 36.55072,197.29205 250,0"
     id="path9387"
     style="fill:none;stroke:#000000;stroke-width:1px;stroke-linecap:square;stroke-linejoin:miter;stroke-opacity:1;marker-end:url(#Arrow1Mend)" />
  <text
     x="46.55072"
     y="167.29205"
     id="text9963"
     xml:space="preserve"
     style="font-size:12px;font-style:normal;font-weight:normal;fill:#000000;fill-opacity:1;stroke:none;font-family:Bitstream Vera Sans"><tspan
       x="46.55072"
       y="167.29205"
       id="tspan9965">Call</tspan></text>
  <text
     x="166.55072"
     y="167.29205"
     id="text9967"
     xml:space="preserve"
     style="font-size:12px;font-style:normal;font-weight:normal;fill:#000000;fill-opacity:1;stroke:none;font-family:Bitstream Vera Sans"><tspan
       x="166.55072"
       y="167.29205"
       id="tspan9969">Echo</tspan></text>
  <text
     x="176.55072"
     y="237.29205"
     id="text9971"
     xml:space="preserve"
     style="font-size:12px;font-style:normal;font-weight:normal;fill:#000000;fill-opacity:1;stroke:none;font-family:Bitstream Vera Sans"><tspan
       x="176.55072"
       y="237.29205"
       id="tspan9973">Left ear</tspan></text>
  <text
     x="186.55072"
     y="227.29205"
     id="text9975"
     xml:space="preserve"
     style="font-size:12px;font-style:normal;font-weight:normal;fill:#000000;fill-opacity:1;stroke:none;font-family:Bitstream Vera Sans"><tspan
       x="186.55072"
       y="227.29205"
       id="tspan9977"
       style="letter-spacing:-1.12239194">Right ear</tspan></text>
</svg>
